<svg width="36" height="36" viewBox="0 0 36 36" fill="none" xmlns="http://www.w3.org/2000/svg">
<g opacity="0.5">
<path fill-rule="evenodd" clip-rule="evenodd" d="M21 33H15C9.34315 33 6.51472 33 4.75736 31.2426C3 29.4853 3 26.6569 3 21V15C3 9.34315 3 6.51472 4.75736 4.75736C6.51472 3 9.35804 3 15.0447 3C15.9537 3 16.6821 3 17.295 3.02499C17.2748 3.14489 17.2643 3.26719 17.2638 3.39085L17.25 7.64245C17.2499 9.28811 17.2497 10.7425 17.4074 11.9147C17.5782 13.1854 17.9705 14.4559 19.0074 15.4928C20.0443 16.5297 21.3147 16.922 22.5854 17.0928C23.7577 17.2504 25.2121 17.2503 26.8577 17.2502L27 17.2502H32.9361C33 18.0516 33 19.0351 33 20.3443V21C33 26.6569 33 29.4853 31.2426 31.2426C29.4853 33 26.6569 33 21 33Z" fill="white"/>
</g>
<path d="M9 20.625C8.37868 20.625 7.875 21.1287 7.875 21.75C7.875 22.3713 8.37868 22.875 9 22.875H21C21.6213 22.875 22.125 22.3713 22.125 21.75C22.125 21.1287 21.6213 20.625 21 20.625H9Z" fill="white"/>
<path d="M9 25.875C8.37868 25.875 7.875 26.3787 7.875 27C7.875 27.6213 8.37868 28.125 9 28.125H17.25C17.8713 28.125 18.375 27.6213 18.375 27C18.375 26.3787 17.8713 25.875 17.25 25.875H9Z" fill="white"/>
<path d="M17.2639 3.39015L17.25 7.64175C17.2499 9.2874 17.2498 10.7418 17.4074 11.914C17.5782 13.1847 17.9705 14.4552 19.0074 15.4921C20.0443 16.529 21.3148 16.9213 22.5854 17.0921C23.7577 17.2497 25.212 17.2496 26.8577 17.2495L32.9361 17.2495C32.9547 17.4828 32.9679 17.7315 32.9773 17.9993H33C33 17.5981 33 17.3974 32.9851 17.1612C32.9003 15.8194 32.3425 14.2819 31.5472 13.1978C31.4072 13.007 31.3115 12.8924 31.1201 12.6633C29.9312 11.2404 28.3665 9.46789 27 8.2493C25.7837 7.16468 24.118 5.97804 22.6652 5.00775C21.4171 4.17412 20.793 3.7573 19.9373 3.44751C19.7104 3.36538 19.4112 3.27466 19.1769 3.21699C18.6009 3.0752 18.0402 3.02588 17.25 3.00879L17.2639 3.39015Z" fill="white"/>
</svg>
