<svg width="939" height="483" viewBox="0 0 939 483" fill="none" xmlns="http://www.w3.org/2000/svg">
<path d="M199.141 234.213H247.496V252.966H199.141V234.213ZM311.853 233.801H327.945V255.02H311.853V233.801ZM3.43896 5.08496V469.584H512.575V469.521H939V233.989H848.79V237.648H805.715V245.029H795.317V308.488H757.216V355.436H530.094V243.549H469.024V129.187H495.056V5.08496H3.43896Z" fill="#B6CEEA"/>
<path d="M496.654 0.332031H490.108V4.98652H496.654V0.332031Z" fill="white"/>
<path d="M496.654 0.332031H490.108V2.18845H496.654V0.332031Z" fill="white"/>
<path d="M492.281 0.332031H490.108V4.98652H492.281V0.332031Z" fill="white"/>
<mask id="mask0_137_8845" style="mask-type:luminance" maskUnits="userSpaceOnUse" x="0" y="0" width="939" height="483">
<path d="M939 0H0V483H939V0Z" fill="white"/>
</mask>
<g mask="url(#mask0_137_8845)">
<path d="M492.281 0.332031H490.108V4.98652H492.281V0.332031Z" stroke="#214270" stroke-width="0.175481" stroke-linecap="round" stroke-linejoin="round"/>
</g>
<path d="M477.878 0.332031H436.886V4.98652H477.878V0.332031Z" fill="white"/>
<mask id="mask1_137_8845" style="mask-type:luminance" maskUnits="userSpaceOnUse" x="0" y="0" width="939" height="483">
<path d="M939 0H0V483H939V0Z" fill="white"/>
</mask>
<g mask="url(#mask1_137_8845)">
<path d="M477.878 0.332031H436.886V4.98652H477.878V0.332031Z" stroke="#214270" stroke-width="0.175481" stroke-linecap="round" stroke-linejoin="round"/>
</g>
<path d="M477.878 0.332031H436.886V2.18845H477.878V0.332031Z" fill="white"/>
<mask id="mask2_137_8845" style="mask-type:luminance" maskUnits="userSpaceOnUse" x="0" y="0" width="939" height="483">
<path d="M939 0H0V483H939V0Z" fill="white"/>
</mask>
<g mask="url(#mask2_137_8845)">
<path d="M477.878 0.332031H436.886V2.18845H477.878V0.332031Z" stroke="#214270" stroke-width="0.175481" stroke-linecap="round" stroke-linejoin="round"/>
</g>
<path d="M439.059 0.332031H436.886V4.98652H439.059V0.332031Z" fill="white"/>
<mask id="mask3_137_8845" style="mask-type:luminance" maskUnits="userSpaceOnUse" x="0" y="0" width="939" height="483">
<path d="M939 0H0V483H939V0Z" fill="white"/>
</mask>
<g mask="url(#mask3_137_8845)">
<path d="M439.059 0.332031H436.886V4.98652H439.059V0.332031Z" stroke="#214270" stroke-width="0.175481" stroke-linecap="round" stroke-linejoin="round"/>
</g>
<path d="M477.877 0.332031H475.704V4.98652H477.877V0.332031Z" fill="white"/>
<mask id="mask4_137_8845" style="mask-type:luminance" maskUnits="userSpaceOnUse" x="0" y="0" width="939" height="483">
<path d="M939 0H0V483H939V0Z" fill="white"/>
</mask>
<g mask="url(#mask4_137_8845)">
<path d="M477.877 0.332031H475.704V4.98652H477.877V0.332031Z" stroke="#214270" stroke-width="0.175481" stroke-linecap="round" stroke-linejoin="round"/>
</g>
<path d="M424.629 0.332031H383.233V4.98652H424.629V0.332031Z" fill="white"/>
<mask id="mask5_137_8845" style="mask-type:luminance" maskUnits="userSpaceOnUse" x="0" y="0" width="939" height="483">
<path d="M939 0H0V483H939V0Z" fill="white"/>
</mask>
<g mask="url(#mask5_137_8845)">
<path d="M424.629 0.332031H383.233V4.98652H424.629V0.332031Z" stroke="#214270" stroke-width="0.175481" stroke-linecap="round" stroke-linejoin="round"/>
</g>
<path d="M424.629 0.332031H383.233V2.18845H424.629V0.332031Z" fill="white"/>
<mask id="mask6_137_8845" style="mask-type:luminance" maskUnits="userSpaceOnUse" x="0" y="0" width="939" height="483">
<path d="M939 0H0V483H939V0Z" fill="white"/>
</mask>
<g mask="url(#mask6_137_8845)">
<path d="M424.629 0.332031H383.233V2.18845H424.629V0.332031Z" stroke="#214270" stroke-width="0.175481" stroke-linecap="round" stroke-linejoin="round"/>
</g>
<path d="M385.424 0.332031H383.233V4.98652H385.424V0.332031Z" fill="white"/>
<mask id="mask7_137_8845" style="mask-type:luminance" maskUnits="userSpaceOnUse" x="0" y="0" width="939" height="483">
<path d="M939 0H0V483H939V0Z" fill="white"/>
</mask>
<g mask="url(#mask7_137_8845)">
<path d="M385.424 0.332031H383.233V4.98652H385.424V0.332031Z" stroke="#214270" stroke-width="0.175481" stroke-linecap="round" stroke-linejoin="round"/>
</g>
<path d="M424.63 0.332031H422.438V4.98652H424.63V0.332031Z" fill="white"/>
<mask id="mask8_137_8845" style="mask-type:luminance" maskUnits="userSpaceOnUse" x="0" y="0" width="939" height="483">
<path d="M939 0H0V483H939V0Z" fill="white"/>
</mask>
<g mask="url(#mask8_137_8845)">
<path d="M424.63 0.332031H422.438V4.98652H424.63V0.332031Z" stroke="#214270" stroke-width="0.175481" stroke-linecap="round" stroke-linejoin="round"/>
</g>
<path d="M370.975 0.332031H329.983V4.98652H370.975V0.332031Z" fill="white"/>
<mask id="mask9_137_8845" style="mask-type:luminance" maskUnits="userSpaceOnUse" x="0" y="0" width="939" height="483">
<path d="M939 0H0V483H939V0Z" fill="white"/>
</mask>
<g mask="url(#mask9_137_8845)">
<path d="M370.975 0.332031H329.983V4.98652H370.975V0.332031Z" stroke="#214270" stroke-width="0.175481" stroke-linecap="round" stroke-linejoin="round"/>
</g>
<path d="M370.975 0.332031H329.983V2.18845H370.975V0.332031Z" fill="white"/>
<mask id="mask10_137_8845" style="mask-type:luminance" maskUnits="userSpaceOnUse" x="0" y="0" width="939" height="483">
<path d="M939 0H0V483H939V0Z" fill="white"/>
</mask>
<g mask="url(#mask10_137_8845)">
<path d="M370.975 0.332031H329.983V2.18845H370.975V0.332031Z" stroke="#214270" stroke-width="0.175481" stroke-linecap="round" stroke-linejoin="round"/>
</g>
<path d="M332.156 0.332031H329.983V4.98652H332.156V0.332031Z" fill="white"/>
<mask id="mask11_137_8845" style="mask-type:luminance" maskUnits="userSpaceOnUse" x="0" y="0" width="939" height="483">
<path d="M939 0H0V483H939V0Z" fill="white"/>
</mask>
<g mask="url(#mask11_137_8845)">
<path d="M332.156 0.332031H329.983V4.98652H332.156V0.332031Z" stroke="#214270" stroke-width="0.175481" stroke-linecap="round" stroke-linejoin="round"/>
</g>
<path d="M370.985 0.332031H368.812V4.98652H370.985V0.332031Z" fill="white"/>
<mask id="mask12_137_8845" style="mask-type:luminance" maskUnits="userSpaceOnUse" x="0" y="0" width="939" height="483">
<path d="M939 0H0V483H939V0Z" fill="white"/>
</mask>
<g mask="url(#mask12_137_8845)">
<path d="M370.985 0.332031H368.812V4.98652H370.985V0.332031Z" stroke="#214270" stroke-width="0.175481" stroke-linecap="round" stroke-linejoin="round"/>
</g>
<path d="M317.817 0.332031H276.34V4.98652H317.817V0.332031Z" fill="white"/>
<mask id="mask13_137_8845" style="mask-type:luminance" maskUnits="userSpaceOnUse" x="0" y="0" width="939" height="483">
<path d="M939 0H0V483H939V0Z" fill="white"/>
</mask>
<g mask="url(#mask13_137_8845)">
<path d="M317.817 0.332031H276.341V4.98652H317.817V0.332031Z" stroke="#214270" stroke-width="0.175481" stroke-linecap="round" stroke-linejoin="round"/>
</g>
<path d="M317.817 0.332031H276.34V2.18845H317.817V0.332031Z" fill="white"/>
<mask id="mask14_137_8845" style="mask-type:luminance" maskUnits="userSpaceOnUse" x="0" y="0" width="939" height="483">
<path d="M939 0H0V483H939V0Z" fill="white"/>
</mask>
<g mask="url(#mask14_137_8845)">
<path d="M317.817 0.332031H276.341V2.18845H317.817V0.332031Z" stroke="#214270" stroke-width="0.175481" stroke-linecap="round" stroke-linejoin="round"/>
</g>
<path d="M278.54 0.332031H276.34V4.98652H278.54V0.332031Z" fill="white"/>
<mask id="mask15_137_8845" style="mask-type:luminance" maskUnits="userSpaceOnUse" x="0" y="0" width="939" height="483">
<path d="M939 0H0V483H939V0Z" fill="white"/>
</mask>
<g mask="url(#mask15_137_8845)">
<path d="M278.541 0.332031H276.341V4.98652H278.541V0.332031Z" stroke="#214270" stroke-width="0.175481" stroke-linecap="round" stroke-linejoin="round"/>
</g>
<path d="M317.817 0.332031H315.617V4.98652H317.817V0.332031Z" fill="white"/>
<mask id="mask16_137_8845" style="mask-type:luminance" maskUnits="userSpaceOnUse" x="0" y="0" width="939" height="483">
<path d="M939 0H0V483H939V0Z" fill="white"/>
</mask>
<g mask="url(#mask16_137_8845)">
<path d="M317.817 0.332031H315.617V4.98652H317.817V0.332031Z" stroke="#214270" stroke-width="0.175481" stroke-linecap="round" stroke-linejoin="round"/>
</g>
<path d="M264.082 0.332031H222.749V4.98652H264.082V0.332031Z" fill="white"/>
<mask id="mask17_137_8845" style="mask-type:luminance" maskUnits="userSpaceOnUse" x="0" y="0" width="939" height="483">
<path d="M939 0H0V483H939V0Z" fill="white"/>
</mask>
<g mask="url(#mask17_137_8845)">
<path d="M264.082 0.332031H222.749V4.98652H264.082V0.332031Z" stroke="#214270" stroke-width="0.175481" stroke-linecap="round" stroke-linejoin="round"/>
</g>
<path d="M264.082 0.332031H222.749V2.18845H264.082V0.332031Z" fill="white"/>
<mask id="mask18_137_8845" style="mask-type:luminance" maskUnits="userSpaceOnUse" x="0" y="0" width="939" height="483">
<path d="M939 0H0V483H939V0Z" fill="white"/>
</mask>
<g mask="url(#mask18_137_8845)">
<path d="M264.082 0.332031H222.749V2.18845H264.082V0.332031Z" stroke="#214270" stroke-width="0.175481" stroke-linecap="round" stroke-linejoin="round"/>
</g>
<path d="M224.94 0.332031H222.749V4.98652H224.94V0.332031Z" fill="white"/>
<mask id="mask19_137_8845" style="mask-type:luminance" maskUnits="userSpaceOnUse" x="0" y="0" width="939" height="483">
<path d="M939 0H0V483H939V0Z" fill="white"/>
</mask>
<g mask="url(#mask19_137_8845)">
<path d="M224.94 0.332031H222.749V4.98652H224.94V0.332031Z" stroke="#214270" stroke-width="0.175481" stroke-linecap="round" stroke-linejoin="round"/>
</g>
<path d="M264.082 0.332031H261.891V4.98652H264.082V0.332031Z" fill="white"/>
<mask id="mask20_137_8845" style="mask-type:luminance" maskUnits="userSpaceOnUse" x="0" y="0" width="939" height="483">
<path d="M939 0H0V483H939V0Z" fill="white"/>
</mask>
<g mask="url(#mask20_137_8845)">
<path d="M264.082 0.332031H261.891V4.98652H264.082V0.332031Z" stroke="#214270" stroke-width="0.175481" stroke-linecap="round" stroke-linejoin="round"/>
</g>
<path d="M210.626 0.332031H169.634V4.98652H210.626V0.332031Z" fill="white"/>
<mask id="mask21_137_8845" style="mask-type:luminance" maskUnits="userSpaceOnUse" x="0" y="0" width="939" height="483">
<path d="M939 0H0V483H939V0Z" fill="white"/>
</mask>
<g mask="url(#mask21_137_8845)">
<path d="M210.626 0.332031H169.634V4.98652H210.626V0.332031Z" stroke="#214270" stroke-width="0.175481" stroke-linecap="round" stroke-linejoin="round"/>
</g>
<path d="M210.626 0.332031H169.634V2.18845H210.626V0.332031Z" fill="white"/>
<mask id="mask22_137_8845" style="mask-type:luminance" maskUnits="userSpaceOnUse" x="0" y="0" width="939" height="483">
<path d="M939 0H0V483H939V0Z" fill="white"/>
</mask>
<g mask="url(#mask22_137_8845)">
<path d="M210.626 0.332031H169.634V2.18845H210.626V0.332031Z" stroke="#214270" stroke-width="0.175481" stroke-linecap="round" stroke-linejoin="round"/>
</g>
<path d="M171.807 0.332031H169.634V4.98652H171.807V0.332031Z" fill="white"/>
<mask id="mask23_137_8845" style="mask-type:luminance" maskUnits="userSpaceOnUse" x="0" y="0" width="939" height="483">
<path d="M939 0H0V483H939V0Z" fill="white"/>
</mask>
<g mask="url(#mask23_137_8845)">
<path d="M171.807 0.332031H169.634V4.98652H171.807V0.332031Z" stroke="#214270" stroke-width="0.175481" stroke-linecap="round" stroke-linejoin="round"/>
</g>
<path d="M210.626 0.332031H208.453V4.98652H210.626V0.332031Z" fill="white"/>
<mask id="mask24_137_8845" style="mask-type:luminance" maskUnits="userSpaceOnUse" x="0" y="0" width="939" height="483">
<path d="M939 0H0V483H939V0Z" fill="white"/>
</mask>
<g mask="url(#mask24_137_8845)">
<path d="M210.635 0.332031H208.462V4.98652H210.635V0.332031Z" stroke="#214270" stroke-width="0.175481" stroke-linecap="round" stroke-linejoin="round"/>
</g>
<path d="M157.548 0.332031H116.026V4.98652H157.548V0.332031Z" fill="white"/>
<mask id="mask25_137_8845" style="mask-type:luminance" maskUnits="userSpaceOnUse" x="0" y="0" width="939" height="483">
<path d="M939 0H0V483H939V0Z" fill="white"/>
</mask>
<g mask="url(#mask25_137_8845)">
<path d="M157.548 0.332031H116.026V4.98652H157.548V0.332031Z" stroke="#214270" stroke-width="0.175481" stroke-linecap="round" stroke-linejoin="round"/>
</g>
<path d="M157.548 0.332031H116.026V2.18845H157.548V0.332031Z" fill="white"/>
<mask id="mask26_137_8845" style="mask-type:luminance" maskUnits="userSpaceOnUse" x="0" y="0" width="939" height="483">
<path d="M939 0H0V483H939V0Z" fill="white"/>
</mask>
<g mask="url(#mask26_137_8845)">
<path d="M157.548 0.332031H116.026V2.18845H157.548V0.332031Z" stroke="#214270" stroke-width="0.175481" stroke-linecap="round" stroke-linejoin="round"/>
</g>
<path d="M118.226 0.332031H116.026V4.98652H118.226V0.332031Z" fill="white"/>
<mask id="mask27_137_8845" style="mask-type:luminance" maskUnits="userSpaceOnUse" x="0" y="0" width="939" height="483">
<path d="M939 0H0V483H939V0Z" fill="white"/>
</mask>
<g mask="url(#mask27_137_8845)">
<path d="M118.226 0.332031H116.026V4.98652H118.226V0.332031Z" stroke="#214270" stroke-width="0.175481" stroke-linecap="round" stroke-linejoin="round"/>
</g>
<path d="M157.547 0.332031H155.347V4.98652H157.547V0.332031Z" fill="white"/>
<mask id="mask28_137_8845" style="mask-type:luminance" maskUnits="userSpaceOnUse" x="0" y="0" width="939" height="483">
<path d="M939 0H0V483H939V0Z" fill="white"/>
</mask>
<g mask="url(#mask28_137_8845)">
<path d="M157.546 0.332031H155.346V4.98652H157.546V0.332031Z" stroke="#214270" stroke-width="0.175481" stroke-linecap="round" stroke-linejoin="round"/>
</g>
<path d="M103.93 0.332031H62.4082V4.98652H103.93V0.332031Z" fill="white"/>
<mask id="mask29_137_8845" style="mask-type:luminance" maskUnits="userSpaceOnUse" x="0" y="0" width="939" height="483">
<path d="M939 0H0V483H939V0Z" fill="white"/>
</mask>
<g mask="url(#mask29_137_8845)">
<path d="M103.93 0.332031H62.4082V4.98652H103.93V0.332031Z" stroke="#214270" stroke-width="0.175481" stroke-linecap="round" stroke-linejoin="round"/>
</g>
<path d="M103.93 0.332031H62.4082V2.18845H103.93V0.332031Z" fill="white"/>
<mask id="mask30_137_8845" style="mask-type:luminance" maskUnits="userSpaceOnUse" x="0" y="0" width="939" height="483">
<path d="M939 0H0V483H939V0Z" fill="white"/>
</mask>
<g mask="url(#mask30_137_8845)">
<path d="M103.93 0.332031H62.4082V2.18845H103.93V0.332031Z" stroke="#214270" stroke-width="0.175481" stroke-linecap="round" stroke-linejoin="round"/>
</g>
<path d="M64.6082 0.332031H62.4082V4.98652H64.6082V0.332031Z" fill="white"/>
<mask id="mask31_137_8845" style="mask-type:luminance" maskUnits="userSpaceOnUse" x="0" y="0" width="939" height="483">
<path d="M939 0H0V483H939V0Z" fill="white"/>
</mask>
<g mask="url(#mask31_137_8845)">
<path d="M64.6082 0.332031H62.4082V4.98652H64.6082V0.332031Z" stroke="#214270" stroke-width="0.175481" stroke-linecap="round" stroke-linejoin="round"/>
</g>
<path d="M103.922 0.332031H101.722V4.98652H103.922V0.332031Z" fill="white"/>
<mask id="mask32_137_8845" style="mask-type:luminance" maskUnits="userSpaceOnUse" x="0" y="0" width="939" height="483">
<path d="M939 0H0V483H939V0Z" fill="white"/>
</mask>
<g mask="url(#mask32_137_8845)">
<path d="M103.923 0.332031H101.723V4.98652H103.923V0.332031Z" stroke="#214270" stroke-width="0.175481" stroke-linecap="round" stroke-linejoin="round"/>
</g>
<path d="M50.1605 0.332031H9.90479V4.98652H50.1605V0.332031Z" fill="white"/>
<mask id="mask33_137_8845" style="mask-type:luminance" maskUnits="userSpaceOnUse" x="0" y="0" width="939" height="483">
<path d="M939 0H0V483H939V0Z" fill="white"/>
</mask>
<g mask="url(#mask33_137_8845)">
<path d="M50.1617 0.332031H9.90601V4.98652H50.1617V0.332031Z" stroke="#214270" stroke-width="0.175481" stroke-linecap="round" stroke-linejoin="round"/>
</g>
<path d="M50.1605 0.332031H9.90479V2.18845H50.1605V0.332031Z" fill="white"/>
<mask id="mask34_137_8845" style="mask-type:luminance" maskUnits="userSpaceOnUse" x="0" y="0" width="939" height="483">
<path d="M939 0H0V483H939V0Z" fill="white"/>
</mask>
<g mask="url(#mask34_137_8845)">
<path d="M50.1617 0.332031H9.90601V2.18845H50.1617V0.332031Z" stroke="#214270" stroke-width="0.175481" stroke-linecap="round" stroke-linejoin="round"/>
</g>
<path d="M12.033 0.332031H9.90479V4.98652H12.033V0.332031Z" fill="white"/>
<mask id="mask35_137_8845" style="mask-type:luminance" maskUnits="userSpaceOnUse" x="0" y="0" width="939" height="483">
<path d="M939 0H0V483H939V0Z" fill="white"/>
</mask>
<g mask="url(#mask35_137_8845)">
<path d="M12.0342 0.332031H9.90601V4.98652H12.0342V0.332031Z" stroke="#214270" stroke-width="0.175481" stroke-linecap="round" stroke-linejoin="round"/>
</g>
<path d="M50.1609 0.332031H48.0327V4.98652H50.1609V0.332031Z" fill="white"/>
<mask id="mask36_137_8845" style="mask-type:luminance" maskUnits="userSpaceOnUse" x="0" y="0" width="939" height="483">
<path d="M939 0H0V483H939V0Z" fill="white"/>
</mask>
<g mask="url(#mask36_137_8845)">
<path d="M50.1609 0.332031H48.0327V4.98652H50.1609V0.332031Z" stroke="#214270" stroke-width="0.175481" stroke-linecap="round" stroke-linejoin="round"/>
</g>
<path d="M138.107 469.584H83.2146V474.238H138.107V469.584Z" fill="white"/>
<path d="M138.107 469.584H83.2146V474.238H138.107V469.584Z" stroke="#214270" stroke-width="0.175481" stroke-linecap="round" stroke-linejoin="round"/>
<path d="M138.107 472.382H83.2146V474.238H138.107V472.382Z" fill="white"/>
<path d="M138.107 472.382H83.2146V474.238H138.107V472.382Z" stroke="#214270" stroke-width="0.175481" stroke-linecap="round" stroke-linejoin="round"/>
<path d="M138.098 469.584H136.105V474.238H138.098V469.584Z" fill="white"/>
<path d="M138.098 469.584H136.105V474.238H138.098V469.584Z" stroke="#214270" stroke-width="0.175481" stroke-linecap="round" stroke-linejoin="round"/>
<path d="M85.2081 469.584H83.2146V474.238H85.2081V469.584Z" fill="white"/>
<path d="M85.2081 469.584H83.2146V474.238H85.2081V469.584Z" stroke="#214270" stroke-width="0.175481" stroke-linecap="round" stroke-linejoin="round"/>
<path d="M245.746 469.584H191.311V474.238H245.746V469.584Z" fill="white"/>
<path d="M245.746 469.584H191.311V474.238H245.746V469.584Z" stroke="#214270" stroke-width="0.175481" stroke-linecap="round" stroke-linejoin="round"/>
<path d="M245.746 472.382H191.311V474.238H245.746V472.382Z" fill="white"/>
<path d="M245.746 472.382H191.311V474.238H245.746V472.382Z" stroke="#214270" stroke-width="0.175481" stroke-linecap="round" stroke-linejoin="round"/>
<path d="M245.746 469.584H243.77V474.238H245.746V469.584Z" fill="white"/>
<path d="M245.746 469.584H243.77V474.238H245.746V469.584Z" stroke="#214270" stroke-width="0.175481" stroke-linecap="round" stroke-linejoin="round"/>
<path d="M193.287 469.584H191.311V474.238H193.287V469.584Z" fill="white"/>
<path d="M193.287 469.584H191.311V474.238H193.287V469.584Z" stroke="#214270" stroke-width="0.175481" stroke-linecap="round" stroke-linejoin="round"/>
<path d="M354.265 469.584H299.381V474.238H354.265V469.584Z" fill="white"/>
<path d="M354.265 469.584H299.381V474.238H354.265V469.584Z" stroke="#214270" stroke-width="0.175481" stroke-linecap="round" stroke-linejoin="round"/>
<path d="M354.265 472.382H299.381V474.238H354.265V472.382Z" fill="white"/>
<path d="M354.265 472.382H299.381V474.238H354.265V472.382Z" stroke="#214270" stroke-width="0.175481" stroke-linecap="round" stroke-linejoin="round"/>
<path d="M354.264 469.584H352.271V474.238H354.264V469.584Z" fill="white"/>
<path d="M354.264 469.584H352.271V474.238H354.264V469.584Z" stroke="#214270" stroke-width="0.175481" stroke-linecap="round" stroke-linejoin="round"/>
<path d="M301.365 469.584H299.371V474.238H301.365V469.584Z" fill="white"/>
<path d="M301.365 469.584H299.371V474.238H301.365V469.584Z" stroke="#214270" stroke-width="0.175481" stroke-linecap="round" stroke-linejoin="round"/>
<path d="M462.747 469.584H407.855V474.238H462.747V469.584Z" fill="white"/>
<path d="M462.747 469.584H407.855V474.238H462.747V469.584Z" stroke="#214270" stroke-width="0.175481" stroke-linecap="round" stroke-linejoin="round"/>
<path d="M462.747 472.382H407.855V474.238H462.747V472.382Z" fill="white"/>
<path d="M462.747 472.382H407.855V474.238H462.747V472.382Z" stroke="#214270" stroke-width="0.175481" stroke-linecap="round" stroke-linejoin="round"/>
<path d="M462.738 469.584H460.744V474.238H462.738V469.584Z" fill="white"/>
<path d="M462.738 469.584H460.744V474.238H462.738V469.584Z" stroke="#214270" stroke-width="0.175481" stroke-linecap="round" stroke-linejoin="round"/>
<path d="M409.848 469.584H407.855V474.238H409.848V469.584Z" fill="white"/>
<path d="M409.848 469.584H407.855V474.238H409.848V469.584Z" stroke="#214270" stroke-width="0.175481" stroke-linecap="round" stroke-linejoin="round"/>
<path d="M571.257 469.584H516.374V474.238H571.257V469.584Z" fill="white"/>
<path d="M571.257 469.584H516.374V474.238H571.257V469.584Z" stroke="#214270" stroke-width="0.175481" stroke-linecap="round" stroke-linejoin="round"/>
<path d="M571.257 472.382H516.374V474.238H571.257V472.382Z" fill="white"/>
<path d="M571.257 472.382H516.374V474.238H571.257V472.382Z" stroke="#214270" stroke-width="0.175481" stroke-linecap="round" stroke-linejoin="round"/>
<path d="M571.266 469.584H569.273V474.238H571.266V469.584Z" fill="white"/>
<path d="M571.266 469.584H569.273V474.238H571.266V469.584Z" stroke="#214270" stroke-width="0.175481" stroke-linecap="round" stroke-linejoin="round"/>
<path d="M518.367 469.584H516.374V474.238H518.367V469.584Z" fill="white"/>
<path d="M518.367 469.584H516.374V474.238H518.367V469.584Z" stroke="#214270" stroke-width="0.175481" stroke-linecap="round" stroke-linejoin="round"/>
<path d="M679.255 469.584H625.027V474.238H679.255V469.584Z" fill="white"/>
<path d="M679.255 469.584H625.027V474.238H679.255V469.584Z" stroke="#214270" stroke-width="0.175481" stroke-linecap="round" stroke-linejoin="round"/>
<path d="M679.255 472.382H625.027V474.238H679.255V472.382Z" fill="white"/>
<path d="M679.255 472.382H625.027V474.238H679.255V472.382Z" stroke="#214270" stroke-width="0.175481" stroke-linecap="round" stroke-linejoin="round"/>
<path d="M679.255 469.584H677.289V474.238H679.255V469.584Z" fill="white"/>
<path d="M679.255 469.584H677.289V474.238H679.255V469.584Z" stroke="#214270" stroke-width="0.175481" stroke-linecap="round" stroke-linejoin="round"/>
<path d="M626.994 469.584H625.027V474.238H626.994V469.584Z" fill="white"/>
<path d="M626.994 469.584H625.027V474.238H626.994V469.584Z" stroke="#214270" stroke-width="0.175481" stroke-linecap="round" stroke-linejoin="round"/>
<path d="M787.962 469.584H733.079V474.238H787.962V469.584Z" fill="white"/>
<path d="M787.962 469.584H733.079V474.238H787.962V469.584Z" stroke="#214270" stroke-width="0.175481" stroke-linecap="round" stroke-linejoin="round"/>
<path d="M787.962 472.382H733.079V474.238H787.962V472.382Z" fill="white"/>
<path d="M787.962 472.382H733.079V474.238H787.962V472.382Z" stroke="#214270" stroke-width="0.175481" stroke-linecap="round" stroke-linejoin="round"/>
<path d="M787.963 469.584H785.969V474.238H787.963V469.584Z" fill="white"/>
<path d="M787.963 469.584H785.969V474.238H787.963V469.584Z" stroke="#214270" stroke-width="0.175481" stroke-linecap="round" stroke-linejoin="round"/>
<path d="M735.072 469.584H733.079V474.238H735.072V469.584Z" fill="white"/>
<path d="M735.072 469.584H733.079V474.238H735.072V469.584Z" stroke="#214270" stroke-width="0.175481" stroke-linecap="round" stroke-linejoin="round"/>
<path d="M896.175 469.584H841.292V474.238H896.175V469.584Z" fill="white"/>
<path d="M896.175 469.584H841.292V474.238H896.175V469.584Z" stroke="#214270" stroke-width="0.175481" stroke-linecap="round" stroke-linejoin="round"/>
<path d="M896.175 472.382H841.292V474.238H896.175V472.382Z" fill="white"/>
<path d="M896.175 472.382H841.292V474.238H896.175V472.382Z" stroke="#214270" stroke-width="0.175481" stroke-linecap="round" stroke-linejoin="round"/>
<path d="M896.176 469.584H894.183V474.238H896.176V469.584Z" fill="white"/>
<path d="M896.176 469.584H894.183V474.238H896.176V469.584Z" stroke="#214270" stroke-width="0.175481" stroke-linecap="round" stroke-linejoin="round"/>
<path d="M843.285 469.584H841.292V474.238H843.285V469.584Z" fill="white"/>
<path d="M843.285 469.584H841.292V474.238H843.285V469.584Z" stroke="#214270" stroke-width="0.175481" stroke-linecap="round" stroke-linejoin="round"/>
<mask id="mask37_137_8845" style="mask-type:luminance" maskUnits="userSpaceOnUse" x="0" y="0" width="939" height="483">
<path d="M0 0H496.654V130.111L470.578 130.012L531.702 242.159L847.174 209.031V232.958H939V483H0V0Z" fill="white"/>
</mask>
<g mask="url(#mask37_137_8845)">
<path d="M531.099 0.33252H490.107V4.98701H531.099V0.33252Z" stroke="#214270" stroke-width="0.175481" stroke-linecap="round" stroke-linejoin="round"/>
<path d="M531.099 0.33252H490.107V2.18894H531.099V0.33252Z" stroke="#214270" stroke-width="0.175481" stroke-linecap="round" stroke-linejoin="round"/>
<path d="M811.157 236.806V226.34C816.976 226.34 821.69 231.03 821.69 236.806" stroke="#214270" stroke-width="0.175481" stroke-linecap="round" stroke-linejoin="round"/>
<path d="M842.747 236.806V215.865C831.119 215.865 821.69 225.237 821.69 236.806" stroke="#214270" stroke-width="0.175481" stroke-linecap="round" stroke-linejoin="round"/>
<path d="M469.293 196.646H479.763C479.763 202.448 475.076 207.148 469.293 207.148" stroke="#214270" stroke-width="0.175481" stroke-linecap="round" stroke-linejoin="round"/>
<path d="M469.293 228.161H490.233C490.233 216.556 480.859 207.157 469.293 207.157" stroke="#214270" stroke-width="0.175481" stroke-linecap="round" stroke-linejoin="round"/>
</g>
<path d="M72.2504 462.66H12.0061V470.238H72.2504V462.66Z" fill="#214270"/>
<path d="M180.535 462.66H149.062V470.238H180.535V462.66Z" fill="#214270"/>
<path d="M397.079 462.66H365.606V470.238H397.079V462.66Z" fill="#214270"/>
<path d="M505.553 462.66H474.079V470.238H505.553V462.66Z" fill="#214270"/>
<path d="M313.704 232.51H274.319V249.146H313.704V232.51Z" fill="#214270"/>
<path d="M939.009 232.958H908.415V244.76H939.009V232.958Z" fill="#214270"/>
<path d="M289.054 462.66H257.131V470.184H289.054V462.66Z" fill="#214270"/>
<path d="M19.5033 4.98633H3.68115V11.8291H19.5033V4.98633Z" fill="#214270"/>
<path d="M62.1742 0H50.375V10.1699H62.1742V0Z" fill="#214270"/>
<path d="M115.954 0H104.155V10.1699H115.954V0Z" fill="#214270"/>
<path d="M169.419 0H157.62V10.1699H169.419V0Z" fill="#214270"/>
<path d="M222.641 0H210.842V10.1699H222.641V0Z" fill="#214270"/>
<path d="M276.106 0H264.306V10.1699H276.106V0Z" fill="#214270"/>
<path d="M329.84 0H318.041V10.1699H329.84V0Z" fill="#214270"/>
<path d="M382.999 0H371.2V10.1699H382.999V0Z" fill="#214270"/>
<path d="M436.652 0H424.853V10.1699H436.652V0Z" fill="#214270"/>
<path d="M489.866 0H478.067V10.1699H489.866V0Z" fill="#214270"/>
<path d="M120.345 4.98633H104.155V11.8291H120.345V4.98633Z" fill="#214270"/>
<path d="M227.409 4.98633H210.842V11.8291H227.409V4.98633Z" fill="#214270"/>
<path d="M334.491 5.08496H318.041V19.2637H334.491V5.08496Z" fill="#214270"/>
<path d="M496.654 4.98633H477.878V10.6363H496.654V4.98633Z" fill="#214270"/>
<path d="M83.5465 464.75H0V477.584H83.5465V464.75Z" fill="#214270"/>
<path d="M191.85 464.75H137.981V477.584H191.85V464.75Z" fill="#214270"/>
<path d="M299.39 464.75H245.521V477.584H299.39V464.75Z" fill="#214270"/>
<path d="M408.116 464.75H354.247V477.584H408.116V464.75Z" fill="#214270"/>
<path d="M516.481 464.75H462.613V477.584H516.481V464.75Z" fill="#214270"/>
<path d="M613.937 462.66H582.464V470.238H613.937V462.66Z" fill="#214270"/>
<path d="M625.135 464.75H571.266V477.584H625.135V464.75Z" fill="#214270"/>
<path d="M722.151 462.66H690.677V470.238H722.151V462.66Z" fill="#214270"/>
<path d="M830.525 462.66H799.052V470.238H830.525V462.66Z" fill="#214270"/>
<path d="M939 462.66H907.526V470.238H939V462.66Z" fill="#214270"/>
<path d="M733.348 464.75H679.479V477.584H733.348V464.75Z" fill="#214270"/>
<path d="M841.625 464.75H787.693V477.584H841.625V464.75Z" fill="#214270"/>
<path d="M531.711 242.159H528.479V356.549H531.711V242.159Z" fill="#214270"/>
<path d="M495.056 127.142H468.333V130.111H495.056V127.142Z" fill="#214270"/>
<path d="M470.506 127.142H467.533V196.87H470.506V127.142Z" fill="#214270"/>
<path d="M758.697 307.169H755.725V357.032H758.697V307.169Z" fill="#214270"/>
<path d="M935.866 232.958H847.174V235.926H935.866V232.958Z" fill="#214270"/>
<path d="M936.027 233.164V466.31H939V349.733V233.164H936.027Z" fill="#214270"/>
<path d="M126.954 216.6H110.755V255.863H126.954V216.6Z" fill="#214270"/>
<path d="M9.68902 0H0V474.516H9.68902V0Z" fill="#214270"/>
<path d="M19.1626 216.6H6.26782V255.863H19.1626V216.6Z" fill="#214270"/>
<path d="M938.999 464.759H895.861V480.256H938.999V464.759Z" fill="#214270"/>
<path d="M939 472.31H922.882V483.009H939V472.31Z" fill="#214270"/>
<path d="M841.697 472.31H814.677V480.246H841.697V472.31Z" fill="#214270"/>
<path d="M249.265 232.51H197.552V235.927H249.265V232.51Z" fill="#214270"/>
<path d="M249.265 234.213H245.745V254.482H249.265V234.213Z" fill="#214270"/>
<path d="M249.265 251.45H197.552V254.481H249.265V251.45Z" fill="#214270"/>
<path d="M200.74 232.51H197.552V253.424H200.74V232.51Z" fill="#214270"/>
<path d="M219.005 234.267H215.547V252.966H219.005V234.267Z" fill="#214270"/>
<path d="M329.121 232.51H310.713V235.927H329.121V232.51Z" fill="#214270"/>
<path d="M329.122 233.801H325.808V256.212H329.122V233.801Z" fill="#214270"/>
<path d="M327.954 253.827H310.704V256.212H327.954V253.827Z" fill="#214270"/>
<path d="M313.712 245.639H310.713V255.414H313.712V245.639Z" fill="#214270"/>
<path d="M758.707 353.84H528.479V357.024H758.707V353.84Z" fill="#214270"/>
<path d="M807.26 243.549H793.737V246.509H807.26V243.549Z" fill="#214270"/>
<path d="M807.261 236.222H804.109V245.424H807.261V236.222Z" fill="#214270"/>
<path d="M796.889 245.029H793.737V309.816H796.889V245.029Z" fill="#214270"/>
<path d="M795.317 307.169H757.845V309.806H795.317V307.169Z" fill="#214270"/>
<path d="M496.655 8.34082H493.458V130.111H496.655V8.34082Z" fill="#214270"/>
<path d="M531.701 242.159H467.793V244.67H531.701V242.159Z" fill="#214270"/>
<path d="M470.506 227.954H467.533V244.67H470.506V227.954Z" fill="#214270"/>
<path d="M19.1624 433.604H4.84888V470.248H19.1624V433.604Z" fill="#214270"/>
<path d="M19.5133 8.03564H6.7981V19.2638H19.5133V8.03564Z" fill="#214270"/>
<path d="M120.345 5.66797H104.155V19.2637H120.345V5.66797Z" fill="#214270"/>
<path d="M227.409 9.33594H210.842V19.2727H227.409V9.33594Z" fill="#214270"/>
<path d="M441.385 4.98633H424.862V19.2637H441.385V4.98633Z" fill="#214270"/>
<path d="M850.398 233.801H847.174V238.931H850.398V233.801Z" fill="#214270"/>
<path d="M850.407 236.097H842.532V239.065H850.407V236.097Z" fill="#214270"/>
<path d="M811.382 236.222H805.32V239.065H811.382V236.222Z" fill="#214270"/>
<path d="M240.082 328.738V328.433L241.428 326.303H241.65V326.776H241.5L240.483 328.385V328.409H242.296V328.738H240.082ZM241.524 329.366V328.645V328.503V326.303H241.877V329.366H241.524ZM243.891 329.408C243.694 329.408 243.518 329.374 243.363 329.306C243.21 329.239 243.087 329.144 242.997 329.024C242.907 328.902 242.858 328.761 242.85 328.6H243.227C243.235 328.699 243.269 328.784 243.329 328.856C243.389 328.927 243.467 328.982 243.564 329.021C243.66 329.06 243.767 329.079 243.885 329.079C244.017 329.079 244.133 329.056 244.235 329.01C244.337 328.964 244.416 328.901 244.474 328.819C244.532 328.737 244.561 328.642 244.561 328.535C244.561 328.422 244.533 328.323 244.477 328.237C244.421 328.15 244.34 328.083 244.232 328.034C244.124 327.985 243.993 327.96 243.837 327.96H243.592V327.631H243.837C243.959 327.631 244.066 327.609 244.157 327.566C244.25 327.522 244.322 327.46 244.374 327.38C244.427 327.3 244.453 327.207 244.453 327.099C244.453 326.995 244.43 326.905 244.385 326.828C244.339 326.751 244.274 326.692 244.19 326.649C244.107 326.606 244.01 326.584 243.897 326.584C243.791 326.584 243.692 326.604 243.598 326.643C243.505 326.681 243.429 326.736 243.371 326.809C243.312 326.881 243.28 326.967 243.275 327.069H242.916C242.922 326.908 242.97 326.768 243.061 326.647C243.152 326.526 243.27 326.431 243.417 326.363C243.565 326.295 243.727 326.261 243.903 326.261C244.092 326.261 244.255 326.3 244.391 326.377C244.526 326.452 244.63 326.553 244.703 326.677C244.776 326.802 244.812 326.936 244.812 327.081C244.812 327.253 244.767 327.401 244.676 327.522C244.586 327.644 244.464 327.728 244.31 327.775V327.799C244.503 327.831 244.654 327.913 244.763 328.046C244.872 328.177 244.926 328.34 244.926 328.535C244.926 328.701 244.881 328.851 244.79 328.983C244.7 329.115 244.578 329.219 244.422 329.294C244.266 329.37 244.089 329.408 243.891 329.408ZM246.555 329.408C246.429 329.406 246.303 329.382 246.178 329.336C246.052 329.29 245.937 329.213 245.834 329.104C245.73 328.995 245.647 328.847 245.584 328.66C245.521 328.473 245.49 328.238 245.49 327.954C245.49 327.683 245.515 327.443 245.566 327.234C245.617 327.023 245.691 326.846 245.787 326.703C245.884 326.558 246.001 326.448 246.137 326.374C246.275 326.299 246.43 326.261 246.603 326.261C246.774 326.261 246.927 326.296 247.06 326.365C247.195 326.432 247.304 326.527 247.389 326.649C247.474 326.77 247.529 326.91 247.554 327.069H247.189C247.155 326.931 247.089 326.817 246.991 326.727C246.894 326.636 246.764 326.59 246.603 326.59C246.365 326.59 246.178 326.694 246.042 326.9C245.906 327.106 245.838 327.396 245.837 327.769H245.861C245.917 327.684 245.983 327.612 246.06 327.552C246.137 327.491 246.223 327.444 246.317 327.411C246.411 327.379 246.51 327.362 246.614 327.362C246.79 327.362 246.95 327.406 247.096 327.494C247.242 327.58 247.358 327.701 247.446 327.854C247.534 328.007 247.578 328.182 247.578 328.379C247.578 328.569 247.535 328.742 247.451 328.9C247.366 329.056 247.247 329.181 247.093 329.273C246.941 329.365 246.761 329.41 246.555 329.408ZM246.555 329.079C246.68 329.079 246.793 329.048 246.893 328.985C246.993 328.922 247.073 328.838 247.13 328.732C247.189 328.626 247.219 328.509 247.219 328.379C247.219 328.253 247.19 328.137 247.133 328.034C247.078 327.929 247 327.846 246.902 327.784C246.804 327.722 246.692 327.691 246.567 327.691C246.472 327.691 246.384 327.71 246.302 327.748C246.22 327.785 246.148 327.836 246.087 327.901C246.026 327.965 245.978 328.04 245.943 328.123C245.908 328.206 245.891 328.293 245.891 328.385C245.891 328.507 245.919 328.62 245.976 328.726C246.034 328.832 246.112 328.917 246.212 328.982C246.313 329.047 246.427 329.079 246.555 329.079ZM248.554 328.947L248.53 329.109C248.513 329.223 248.487 329.344 248.453 329.474C248.419 329.604 248.383 329.726 248.346 329.84C248.309 329.955 248.279 330.046 248.255 330.114H247.986C247.999 330.05 248.016 329.966 248.037 329.861C248.058 329.757 248.079 329.639 248.1 329.51C248.122 329.381 248.139 329.25 248.153 329.115L248.171 328.947H248.554ZM249.236 329.366L250.606 326.656V326.632H249.027V326.303H250.989V326.65L249.625 329.366H249.236ZM252.48 326.261C252.606 326.262 252.732 326.286 252.857 326.333C252.983 326.38 253.098 326.458 253.201 326.566C253.305 326.674 253.388 326.821 253.451 327.008C253.514 327.194 253.545 327.428 253.545 327.709C253.545 327.981 253.519 328.223 253.468 328.434C253.417 328.645 253.343 328.822 253.246 328.967C253.151 329.111 253.034 329.221 252.896 329.296C252.76 329.371 252.605 329.408 252.433 329.408C252.261 329.408 252.108 329.374 251.973 329.306C251.84 329.238 251.73 329.142 251.644 329.021C251.56 328.898 251.505 328.756 251.481 328.594H251.846C251.879 328.735 251.945 328.851 252.042 328.943C252.141 329.034 252.271 329.079 252.433 329.079C252.669 329.079 252.855 328.976 252.992 328.769C253.13 328.563 253.198 328.271 253.198 327.895H253.174C253.119 327.978 253.052 328.051 252.976 328.111C252.899 328.172 252.814 328.219 252.72 328.252C252.626 328.285 252.526 328.301 252.421 328.301C252.245 328.301 252.084 328.258 251.938 328.171C251.792 328.084 251.675 327.963 251.588 327.811C251.501 327.657 251.458 327.482 251.458 327.284C251.458 327.097 251.499 326.925 251.583 326.77C251.668 326.613 251.787 326.489 251.939 326.396C252.093 326.303 252.273 326.258 252.48 326.261ZM252.48 326.59C252.355 326.59 252.242 326.622 252.141 326.685C252.041 326.746 251.962 326.83 251.903 326.936C251.845 327.041 251.816 327.157 251.816 327.284C251.816 327.412 251.844 327.528 251.9 327.633C251.957 327.737 252.034 327.819 252.132 327.881C252.231 327.942 252.343 327.972 252.469 327.972C252.563 327.972 252.651 327.954 252.733 327.917C252.815 327.879 252.886 327.828 252.947 327.763C253.009 327.697 253.057 327.623 253.092 327.54C253.127 327.456 253.145 327.369 253.145 327.278C253.145 327.159 253.116 327.047 253.058 326.942C253.001 326.837 252.922 326.752 252.821 326.688C252.722 326.623 252.608 326.59 252.48 326.59Z" fill="#214270"/>
<path d="M235.879 158.083V155.02H236.25V156.384H237.883V155.02H238.254V158.083H237.883V156.713H236.25V158.083H235.879ZM238.997 158.083V155.02H240.845V155.349H239.368V156.384H240.75V156.713H239.368V157.753H240.869V158.083H238.997ZM243.326 155.02V158.083H242.956V155.02H243.326ZM241.257 158.083L242.25 156.485L241.34 155.02H241.789L242.585 156.378H243.703L244.499 155.02H244.948L244.032 156.491L245.025 158.083H244.601L243.769 156.725H242.513L241.675 158.083H241.257ZM245.511 155.02H245.876V157.43H245.906L247.581 155.02H247.94V158.083H247.569V155.678H247.539L245.87 158.083H245.511V155.02ZM248.419 158.083V157.742H248.509C248.637 157.742 248.736 157.701 248.807 157.619C248.877 157.537 248.928 157.405 248.959 157.223C248.991 157.04 249.012 156.798 249.023 156.497L249.077 155.02H250.944V158.083H250.573V155.349H249.43L249.382 156.569C249.37 156.89 249.341 157.163 249.294 157.389C249.247 157.614 249.165 157.786 249.047 157.905C248.93 158.023 248.758 158.083 248.533 158.083H248.419ZM254.269 156.551C254.269 156.874 254.211 157.153 254.094 157.389C253.978 157.624 253.817 157.805 253.614 157.933C253.411 158.061 253.178 158.124 252.917 158.124C252.656 158.124 252.424 158.061 252.22 157.933C252.017 157.805 251.857 157.624 251.74 157.389C251.623 157.153 251.565 156.874 251.565 156.551C251.565 156.228 251.623 155.949 251.74 155.714C251.857 155.478 252.017 155.297 252.22 155.169C252.424 155.042 252.656 154.978 252.917 154.978C253.178 154.978 253.411 155.042 253.614 155.169C253.817 155.297 253.978 155.478 254.094 155.714C254.211 155.949 254.269 156.228 254.269 156.551ZM253.91 156.551C253.91 156.286 253.866 156.062 253.777 155.88C253.689 155.697 253.57 155.559 253.42 155.465C253.27 155.372 253.103 155.325 252.917 155.325C252.732 155.325 252.564 155.372 252.413 155.465C252.264 155.559 252.144 155.697 252.056 155.88C251.968 156.062 251.924 156.286 251.924 156.551C251.924 156.816 251.968 157.04 252.056 157.223C252.144 157.405 252.264 157.543 252.413 157.637C252.564 157.731 252.732 157.777 252.917 157.777C253.103 157.777 253.27 157.731 253.42 157.637C253.57 157.543 253.689 157.405 253.777 157.223C253.866 157.04 253.91 156.816 253.91 156.551ZM254.893 158.083V155.02H256.741V155.349H255.264V156.384H256.646V156.713H255.264V157.753H256.765V158.083H254.893Z" fill="#214270"/>
<path d="M232.972 166.857V169.92H232.601V167.187H231.058V169.92H230.687V166.857H232.972ZM236.305 168.389C236.305 168.712 236.246 168.991 236.13 169.226C236.013 169.462 235.853 169.643 235.65 169.771C235.446 169.898 235.214 169.962 234.953 169.962C234.691 169.962 234.459 169.898 234.256 169.771C234.052 169.643 233.892 169.462 233.776 169.226C233.659 168.991 233.601 168.712 233.601 168.389C233.601 168.066 233.659 167.787 233.776 167.551C233.892 167.316 234.052 167.135 234.256 167.007C234.459 166.879 234.691 166.816 234.953 166.816C235.214 166.816 235.446 166.879 235.65 167.007C235.853 167.135 236.013 167.316 236.13 167.551C236.246 167.787 236.305 168.066 236.305 168.389ZM235.946 168.389C235.946 168.124 235.901 167.9 235.813 167.717C235.725 167.535 235.606 167.397 235.455 167.303C235.306 167.209 235.138 167.163 234.953 167.163C234.767 167.163 234.599 167.209 234.449 167.303C234.299 167.397 234.18 167.535 234.091 167.717C234.004 167.9 233.96 168.124 233.96 168.389C233.96 168.654 234.004 168.878 234.091 169.06C234.18 169.243 234.299 169.381 234.449 169.475C234.599 169.568 234.767 169.615 234.953 169.615C235.138 169.615 235.306 169.568 235.455 169.475C235.606 169.381 235.725 169.243 235.813 169.06C235.901 168.878 235.946 168.654 235.946 168.389ZM236.928 166.857H237.371L238.412 169.4H238.448L239.489 166.857H239.931V169.92H239.584V167.593H239.555L238.597 169.92H238.262L237.305 167.593H237.275V169.92H236.928V166.857ZM240.675 169.92V166.857H242.524V167.187H241.046V168.221H242.428V168.55H241.046V169.591H242.548V169.92H240.675ZM246.758 169.591L246.716 170.644H246.351V169.92H246.058V169.591H246.758ZM243.192 166.857H243.563V169.579H244.64V166.857H245.011V169.579H246.088V166.857H246.459V169.92H243.192V166.857ZM247.321 169.92V166.857H249.17V167.187H247.692V168.221H249.074V168.55H247.692V169.591H249.194V169.92H247.321ZM249.839 169.92V166.857H250.209V168.221H251.843V166.857H252.213V169.92H251.843V168.55H250.209V169.92H249.839ZM252.956 166.857H253.321V169.268H253.351L255.026 166.857H255.385V169.92H255.014V167.516H254.984L253.315 169.92H252.956V166.857ZM256.127 169.92V166.857H257.976V167.187H256.498V168.221H257.88V168.55H256.498V169.591H257.999V169.92H256.127Z" fill="#214270"/>
<path d="M241.202 180.227C241.202 179.85 241.251 179.503 241.349 179.187C241.447 178.87 241.588 178.579 241.77 178.313H242.081C242.01 178.411 241.942 178.533 241.88 178.677C241.818 178.821 241.763 178.979 241.717 179.152C241.67 179.323 241.633 179.5 241.606 179.684C241.58 179.867 241.567 180.048 241.567 180.227C241.567 180.464 241.59 180.705 241.636 180.949C241.682 181.193 241.743 181.42 241.821 181.63C241.899 181.839 241.986 182.01 242.081 182.141H241.77C241.588 181.875 241.447 181.584 241.349 181.268C241.251 180.951 241.202 180.604 241.202 180.227ZM245.235 180.227C245.235 180.55 245.176 180.829 245.06 181.064C244.943 181.3 244.783 181.481 244.579 181.609C244.376 181.736 244.144 181.8 243.883 181.8C243.621 181.8 243.389 181.736 243.186 181.609C242.982 181.481 242.822 181.3 242.706 181.064C242.589 180.829 242.531 180.55 242.531 180.227C242.531 179.904 242.589 179.625 242.706 179.389C242.822 179.154 242.982 178.973 243.186 178.845C243.389 178.717 243.621 178.653 243.883 178.653C244.144 178.653 244.376 178.717 244.579 178.845C244.783 178.973 244.943 179.154 245.06 179.389C245.176 179.625 245.235 179.904 245.235 180.227ZM244.876 180.227C244.876 179.962 244.831 179.738 244.742 179.555C244.655 179.373 244.536 179.235 244.385 179.141C244.235 179.047 244.068 179 243.883 179C243.697 179 243.529 179.047 243.379 179.141C243.229 179.235 243.11 179.373 243.021 179.555C242.933 179.738 242.889 179.962 242.889 180.227C242.889 180.492 242.933 180.716 243.021 180.898C243.11 181.081 243.229 181.219 243.379 181.313C243.529 181.406 243.697 181.453 243.883 181.453C244.068 181.453 244.235 181.406 244.385 181.313C244.536 181.219 244.655 181.081 244.742 180.898C244.831 180.716 244.876 180.492 244.876 180.227ZM246.911 179.06H247.396C247.623 179.06 247.825 179.111 248.001 179.213C248.178 179.315 248.316 179.456 248.417 179.638C248.518 179.819 248.568 180.029 248.568 180.269C248.568 180.508 248.518 180.719 248.417 180.901C248.316 181.084 248.178 181.226 248.001 181.329C247.825 181.432 247.623 181.483 247.396 181.483H246.911C246.684 181.483 246.482 181.432 246.305 181.331C246.129 181.229 245.99 181.087 245.89 180.906C245.789 180.724 245.739 180.514 245.739 180.275C245.739 180.035 245.789 179.825 245.89 179.642C245.99 179.46 246.129 179.317 246.305 179.214C246.482 179.112 246.684 179.06 246.911 179.06ZM246.911 179.389C246.738 179.389 246.591 179.426 246.471 179.498C246.353 179.571 246.262 179.674 246.201 179.807C246.14 179.939 246.109 180.095 246.109 180.275C246.109 180.452 246.14 180.607 246.201 180.738C246.262 180.87 246.353 180.972 246.471 181.045C246.591 181.118 246.738 181.154 246.911 181.154H247.396C247.569 181.154 247.715 181.118 247.834 181.045C247.953 180.972 248.044 180.869 248.105 180.737C248.166 180.604 248.197 180.448 248.197 180.269C248.197 180.091 248.166 179.937 248.105 179.805C248.044 179.673 247.953 179.571 247.834 179.498C247.715 179.426 247.569 179.389 247.396 179.389H246.911ZM247.342 178.642V181.884H246.971V178.642H247.342ZM249.19 178.695H249.554V181.106H249.584L251.259 178.695H251.618V181.758H251.247V179.353H251.218L249.549 181.758H249.19V178.695ZM254.825 179.653H254.454C254.432 179.546 254.394 179.452 254.339 179.371C254.285 179.291 254.22 179.223 254.142 179.168C254.065 179.112 253.98 179.07 253.886 179.042C253.792 179.014 253.695 179 253.593 179C253.407 179 253.239 179.047 253.089 179.141C252.939 179.235 252.82 179.373 252.731 179.555C252.644 179.738 252.6 179.962 252.6 180.227C252.6 180.492 252.644 180.716 252.731 180.898C252.82 181.081 252.939 181.219 253.089 181.313C253.239 181.406 253.407 181.453 253.593 181.453C253.695 181.453 253.792 181.439 253.886 181.411C253.98 181.383 254.065 181.342 254.142 181.287C254.22 181.231 254.285 181.163 254.339 181.082C254.394 181.001 254.432 180.907 254.454 180.801H254.825C254.797 180.958 254.746 181.098 254.673 181.221C254.599 181.345 254.507 181.45 254.398 181.537C254.288 181.623 254.165 181.688 254.028 181.733C253.893 181.778 253.747 181.8 253.593 181.8C253.332 181.8 253.099 181.736 252.896 181.609C252.693 181.481 252.533 181.3 252.416 181.064C252.299 180.829 252.241 180.55 252.241 180.227C252.241 179.904 252.299 179.625 252.416 179.389C252.533 179.154 252.693 178.973 252.896 178.845C253.099 178.717 253.332 178.653 253.593 178.653C253.747 178.653 253.893 178.676 254.028 178.721C254.165 178.766 254.288 178.831 254.398 178.918C254.507 179.004 254.599 179.109 254.673 179.232C254.746 179.355 254.797 179.495 254.825 179.653ZM256.131 180.227C256.131 180.604 256.081 180.951 255.982 181.268C255.885 181.584 255.745 181.875 255.562 182.141H255.251C255.323 182.042 255.39 181.921 255.452 181.776C255.514 181.633 255.569 181.475 255.616 181.304C255.663 181.131 255.699 180.953 255.725 180.77C255.752 180.585 255.766 180.404 255.766 180.227C255.766 179.99 255.743 179.749 255.697 179.504C255.651 179.26 255.589 179.033 255.511 178.824C255.434 178.615 255.347 178.444 255.251 178.313H255.562C255.745 178.579 255.885 178.87 255.982 179.187C256.081 179.503 256.131 179.85 256.131 180.227Z" fill="#214270"/>
<path d="M242.973 135.123V134.818L244.319 132.689H244.54V133.161H244.391L243.374 134.77V134.794H245.186V135.123H242.973ZM244.415 135.751V135.031V134.889V132.689H244.768V135.751H244.415ZM246.782 135.793C246.584 135.793 246.408 135.759 246.254 135.692C246.1 135.624 245.978 135.53 245.887 135.409C245.798 135.287 245.749 135.146 245.741 134.986H246.118C246.126 135.084 246.16 135.17 246.219 135.241C246.279 135.312 246.357 135.367 246.454 135.406C246.551 135.445 246.658 135.464 246.776 135.464C246.907 135.464 247.024 135.441 247.126 135.396C247.227 135.35 247.307 135.286 247.365 135.204C247.423 135.122 247.452 135.028 247.452 134.92C247.452 134.807 247.424 134.708 247.368 134.622C247.312 134.536 247.23 134.468 247.123 134.419C247.015 134.37 246.883 134.346 246.728 134.346H246.483V134.017H246.728C246.849 134.017 246.956 133.995 247.048 133.951C247.141 133.907 247.213 133.845 247.265 133.765C247.318 133.686 247.344 133.592 247.344 133.484C247.344 133.38 247.321 133.29 247.275 133.213C247.229 133.137 247.165 133.077 247.081 133.034C246.998 132.991 246.9 132.97 246.788 132.97C246.682 132.97 246.582 132.989 246.489 133.028C246.396 133.066 246.32 133.121 246.261 133.194C246.202 133.266 246.17 133.353 246.165 133.454H245.807C245.813 133.294 245.861 133.153 245.952 133.033C246.042 132.911 246.161 132.816 246.308 132.748C246.455 132.681 246.617 132.647 246.794 132.647C246.983 132.647 247.146 132.685 247.281 132.762C247.417 132.838 247.521 132.938 247.594 133.062C247.667 133.187 247.703 133.322 247.703 133.466C247.703 133.639 247.658 133.786 247.567 133.907C247.477 134.029 247.355 134.113 247.2 134.16V134.184C247.394 134.216 247.545 134.298 247.654 134.431C247.762 134.562 247.817 134.726 247.817 134.92C247.817 135.086 247.771 135.236 247.681 135.369C247.591 135.5 247.468 135.604 247.313 135.68C247.157 135.755 246.98 135.793 246.782 135.793ZM249.445 135.793C249.32 135.791 249.194 135.767 249.068 135.722C248.943 135.676 248.828 135.598 248.724 135.49C248.621 135.38 248.537 135.232 248.475 135.046C248.412 134.858 248.38 134.623 248.38 134.34C248.38 134.068 248.406 133.828 248.457 133.619C248.508 133.408 248.581 133.231 248.678 133.088C248.775 132.943 248.891 132.834 249.028 132.759C249.166 132.684 249.321 132.647 249.493 132.647C249.665 132.647 249.817 132.681 249.951 132.75C250.085 132.818 250.195 132.912 250.28 133.034C250.365 133.156 250.419 133.296 250.444 133.454H250.079C250.046 133.317 249.98 133.203 249.882 133.112C249.784 133.021 249.655 132.976 249.493 132.976C249.256 132.976 249.069 133.079 248.932 133.285C248.797 133.492 248.728 133.781 248.727 134.154H248.751C248.807 134.069 248.873 133.997 248.95 133.937C249.028 133.877 249.114 133.83 249.207 133.797C249.301 133.764 249.4 133.747 249.505 133.747C249.681 133.747 249.841 133.791 249.987 133.879C250.132 133.966 250.249 134.086 250.337 134.239C250.424 134.392 250.468 134.567 250.468 134.764C250.468 134.954 250.426 135.127 250.341 135.285C250.256 135.441 250.137 135.566 249.984 135.659C249.831 135.75 249.652 135.795 249.445 135.793ZM249.445 135.464C249.571 135.464 249.684 135.433 249.783 135.37C249.884 135.307 249.963 135.223 250.021 135.117C250.08 135.012 250.109 134.894 250.109 134.764C250.109 134.638 250.081 134.523 250.024 134.419C249.968 134.314 249.891 134.231 249.792 134.169C249.695 134.107 249.583 134.076 249.457 134.076C249.363 134.076 249.274 134.095 249.193 134.133C249.111 134.17 249.039 134.221 248.977 134.286C248.916 134.351 248.868 134.425 248.834 134.509C248.799 134.591 248.781 134.679 248.781 134.77C248.781 134.892 248.81 135.006 248.866 135.111C248.924 135.217 249.003 135.302 249.103 135.367C249.203 135.432 249.318 135.464 249.445 135.464ZM251.445 135.333L251.421 135.494C251.404 135.608 251.378 135.73 251.343 135.859C251.309 135.989 251.274 136.111 251.237 136.226C251.2 136.34 251.17 136.431 251.146 136.499H250.877C250.89 136.435 250.906 136.351 250.927 136.246C250.948 136.142 250.969 136.025 250.99 135.895C251.012 135.766 251.03 135.635 251.044 135.5L251.062 135.333H251.445ZM252.127 135.751L253.497 133.041V133.018H251.917V132.689H253.88V133.036L252.516 135.751H252.127ZM255.371 132.647C255.497 132.648 255.622 132.672 255.748 132.718C255.874 132.765 255.988 132.843 256.092 132.952C256.196 133.059 256.279 133.206 256.342 133.393C256.405 133.579 256.436 133.813 256.436 134.094C256.436 134.367 256.41 134.608 256.358 134.82C256.307 135.03 256.234 135.208 256.137 135.352C256.041 135.497 255.924 135.606 255.787 135.681C255.65 135.756 255.496 135.793 255.323 135.793C255.152 135.793 254.999 135.759 254.864 135.692C254.731 135.623 254.621 135.528 254.535 135.406C254.45 135.283 254.396 135.141 254.372 134.98H254.737C254.77 135.12 254.835 135.236 254.933 135.328C255.032 135.419 255.162 135.464 255.323 135.464C255.56 135.464 255.746 135.361 255.883 135.155C256.02 134.948 256.089 134.657 256.089 134.28H256.065C256.009 134.364 255.943 134.436 255.866 134.497C255.789 134.557 255.704 134.604 255.61 134.637C255.517 134.67 255.417 134.687 255.311 134.687C255.136 134.687 254.975 134.643 254.828 134.557C254.683 134.469 254.566 134.349 254.478 134.196C254.392 134.043 254.348 133.867 254.348 133.67C254.348 133.482 254.39 133.311 254.474 133.155C254.559 132.999 254.677 132.874 254.83 132.781C254.983 132.689 255.164 132.644 255.371 132.647ZM255.371 132.976C255.245 132.976 255.132 133.007 255.032 133.07C254.932 133.132 254.853 133.215 254.794 133.321C254.736 133.426 254.707 133.542 254.707 133.67C254.707 133.797 254.735 133.913 254.791 134.018C254.848 134.122 254.925 134.205 255.023 134.266C255.121 134.327 255.234 134.358 255.359 134.358C255.454 134.358 255.542 134.339 255.624 134.302C255.706 134.264 255.777 134.213 255.838 134.148C255.9 134.082 255.948 134.008 255.983 133.925C256.018 133.842 256.035 133.754 256.035 133.664C256.035 133.544 256.006 133.432 255.948 133.327C255.892 133.222 255.813 133.138 255.712 133.073C255.612 133.008 255.499 132.976 255.371 132.976Z" fill="#1B6EB7"/>
<path d="M253.215 119.445C253.341 119.446 253.467 119.47 253.592 119.517C253.718 119.564 253.832 119.642 253.936 119.751C254.04 119.858 254.123 120.005 254.186 120.192C254.249 120.378 254.28 120.612 254.28 120.893C254.28 121.165 254.254 121.407 254.202 121.619C254.151 121.829 254.078 122.006 253.981 122.151C253.885 122.296 253.769 122.405 253.631 122.48C253.494 122.555 253.34 122.592 253.167 122.592C252.996 122.592 252.843 122.558 252.708 122.49C252.575 122.422 252.465 122.326 252.379 122.205C252.294 122.082 252.24 121.94 252.216 121.779H252.581C252.614 121.919 252.679 122.035 252.777 122.127C252.876 122.218 253.006 122.263 253.167 122.263C253.404 122.263 253.59 122.16 253.727 121.954C253.864 121.747 253.933 121.456 253.933 121.079H253.909C253.853 121.162 253.787 121.235 253.71 121.296C253.634 121.356 253.548 121.403 253.455 121.436C253.361 121.469 253.261 121.485 253.155 121.485C252.98 121.485 252.819 121.442 252.672 121.355C252.527 121.268 252.41 121.147 252.322 120.995C252.236 120.841 252.192 120.666 252.192 120.468C252.192 120.281 252.234 120.11 252.318 119.954C252.403 119.797 252.521 119.673 252.674 119.58C252.827 119.487 253.008 119.442 253.215 119.445ZM253.215 119.775C253.09 119.775 252.976 119.806 252.876 119.869C252.776 119.931 252.697 120.014 252.638 120.12C252.58 120.225 252.551 120.341 252.551 120.468C252.551 120.596 252.579 120.712 252.635 120.817C252.692 120.921 252.769 121.003 252.867 121.065C252.966 121.126 253.078 121.156 253.203 121.156C253.298 121.156 253.386 121.138 253.468 121.101C253.55 121.063 253.621 121.012 253.682 120.947C253.744 120.881 253.792 120.807 253.827 120.724C253.862 120.64 253.879 120.553 253.879 120.462C253.879 120.343 253.85 120.231 253.793 120.126C253.736 120.021 253.657 119.937 253.556 119.872C253.457 119.807 253.343 119.775 253.215 119.775Z" fill="#214270"/>
<path d="M272.801 133.052H235.661V145.76H272.801V133.052Z" stroke="#214270" stroke-width="0.350961" stroke-miterlimit="10"/>
<path d="M272.801 118.972H235.661V133.025H272.801V118.972Z" stroke="#214270" stroke-width="0.350961" stroke-miterlimit="10"/>
</svg>
