<svg width="18" height="18" viewBox="0 0 18 18" fill="none" xmlns="http://www.w3.org/2000/svg">
<path d="M6.9375 10.5C8.18014 10.5 9.1875 11.5074 9.1875 12.75C9.1875 13.9926 8.18014 15 6.9375 15C5.69486 15 4.6875 13.9926 4.6875 12.75C4.6875 11.5074 5.69486 10.5 6.9375 10.5Z" fill="white"/>
<path d="M10.6875 3C9.44486 3 8.4375 4.00736 8.4375 5.25C8.4375 6.49264 9.44486 7.5 10.6875 7.5C11.9301 7.5 12.9375 6.49264 12.9375 5.25C12.9375 4.00736 11.9301 3 10.6875 3Z" fill="white"/>
<g opacity="0.5">
<path d="M12.8744 5.78125C12.9156 5.61087 12.9375 5.43292 12.9375 5.24986C12.9375 5.04439 12.91 4.84536 12.8584 4.65625H16.3125C16.6232 4.65625 16.875 4.90809 16.875 5.21875C16.875 5.52941 16.6232 5.78125 16.3125 5.78125L12.8744 5.78125Z" fill="white"/>
<path d="M8.51663 4.65625C8.46504 4.84536 8.4375 5.04439 8.4375 5.24985C8.4375 5.43292 8.45936 5.61087 8.50062 5.78125L1.3125 5.78125C1.00184 5.78125 0.75 5.52941 0.75 5.21875C0.75 4.90809 1.00184 4.65625 1.3125 4.65625H8.51663Z" fill="white"/>
<path d="M4.76663 12.1562H1.3125C1.00184 12.1562 0.75 12.4081 0.75 12.7188C0.75 13.0294 1.00184 13.2812 1.3125 13.2812H4.75062C4.70936 13.1109 4.6875 12.9329 4.6875 12.7499C4.6875 12.5444 4.71504 12.3454 4.76663 12.1562Z" fill="white"/>
<path d="M9.12438 13.2812H16.3125C16.6232 13.2812 16.875 13.0294 16.875 12.7188C16.875 12.4081 16.6232 12.1562 16.3125 12.1562H9.10837C9.15996 12.3454 9.1875 12.5444 9.1875 12.7499C9.1875 12.9329 9.16564 13.1109 9.12438 13.2812Z" fill="white"/>
</g>
</svg>
